<svg xmlns="http://www.w3.org/2000/svg" width="17.307" height="21.427" viewBox="0 0 17.307 21.427"><defs><style>.a,.b{fill:none;stroke:#6a7074;stroke-linejoin:round;}.a{stroke-linecap:round;}</style></defs><g transform="translate(-308.367 -658.5)"><path class="a" d="M4.27,4.27l7.263-4L9.01,7.4a2.563,2.563,0,0,1-.606,1,3.542,3.542,0,0,1-1.121.646L.3,11.5Z" transform="translate(317 662.929) rotate(45)"/><path class="b" d="M1,0H8V10L0,12.168V1A1,1,0,0,1,1,0Z" transform="translate(309 659)"/><path class="b" d="M7,0H0V10l8,2.168V1A1,1,0,0,0,7,0Z" transform="translate(317 659)"/></g></svg>